<svg width="4000" height="4000" viewBox="0 0 4000 4000" fill="none" xmlns="http://www.w3.org/2000/svg">
<path d="M671.522 1744.34C671.522 1571.64 750.617 1439.84 863.424 1329.67C963.671 1231.78 1089.28 1152.12 1208.22 1076.7C1223.77 1066.84 1239.22 1057.05 1254.47 1047.29C1314.28 1009.07 1370.14 970.011 1424.47 932.024C1638.26 782.545 1828.32 649.665 2141.04 649.665C2497.03 649.665 2661.28 854.733 2847.95 1087.8C2865.68 1109.94 2883.61 1132.33 2901.93 1154.82C2935.05 1195.48 2970.31 1235.75 3005.64 1276.08C3020.59 1293.15 3035.55 1310.24 3050.37 1327.37C3100.4 1385.23 3149.15 1444.07 3191.98 1506.62C3277.47 1631.49 3339.05 1770.65 3339.05 1944.53C3339.05 2125.73 3261.61 2291.31 3149.64 2445.96C3046.58 2588.3 2915.44 2719.87 2790.85 2844.86C2779.94 2855.8 2769.08 2866.7 2758.3 2877.54C2484.18 3153.22 2267.97 3339.49 1891.83 3339.49C1721.58 3339.49 1574.33 3254.01 1441.22 3129.09C1312.78 3008.54 1199.41 2853.14 1092.69 2706.84C1088.71 2701.38 1084.73 2695.93 1080.76 2690.49C1073.81 2680.97 1066.93 2671.56 1060.13 2662.24C820.14 2333.74 671.522 2130.3 671.522 1744.34Z" stroke="white" stroke-width="35"/>
<path d="M1002.78 1144.79C1087.34 998.314 1218.76 925.145 1368.13 886.795C1500.88 852.711 1646.17 846.495 1783.77 840.607C1801.77 839.837 1819.64 839.073 1837.33 838.252C1906.7 835.035 1973.14 829.185 2037.74 823.496C2291.88 801.116 2517.66 781.233 2782.18 933.983C3083.27 1107.85 3121.78 1361.96 3165.58 1651.02C3169.74 1678.46 3173.94 1706.22 3178.43 1734.26C3186.54 1784.97 3196.66 1836.38 3206.79 1887.88C3211.08 1909.68 3215.37 1931.49 3219.52 1953.26C3233.51 2026.81 3245.94 2100.56 3251.54 2174.55C3262.72 2322.27 3246.65 2470.4 3161.5 2617.9C3072.78 2771.61 2926.19 2874.26 2755.7 2950.77C2598.79 3021.2 2423.37 3068.77 2256.7 3113.96C2242.1 3117.92 2227.58 3121.86 2213.14 3125.79C1846.1 3225.8 1572.02 3278.18 1253.87 3094.46C1109.93 3011.34 1027.24 2866.95 975.797 2695.92C926.161 2530.88 906.358 2343.61 887.713 2167.29C887.017 2160.71 886.323 2154.14 885.629 2147.59C884.413 2136.12 883.205 2124.78 882.011 2113.56C839.848 1717.46 813.749 1472.27 1002.78 1144.79Z" stroke="#D1D1D1" stroke-width="35"/>
<path d="M1202.49 833.145C1330.14 705.495 1485.86 666.406 1650.32 668.137C1796.43 669.675 1947.74 703.363 2090.93 735.24C2109.66 739.41 2128.25 743.549 2146.68 747.581C2218.85 763.376 2288.75 775.661 2356.76 787.612C2624.46 834.657 2862.65 876.516 3092.99 1106.85C3355.25 1369.11 3324.76 1641.67 3290.15 1951.05C3286.86 1980.44 3283.53 2010.16 3280.42 2040.24C3274.79 2094.62 3271.03 2150.26 3267.26 2206.02C3265.67 2229.63 3264.07 2253.26 3262.33 2276.82C3256.46 2356.35 3248.91 2435.68 3234.27 2513.41C3205.02 2668.59 3147.59 2816.78 3019.12 2945.25C2885.22 3079.14 2705.84 3144.38 2509.22 3176.11C2328.27 3205.32 2134.59 3205.89 1950.66 3206.43C1934.55 3206.48 1918.52 3206.52 1902.58 3206.59C1497.35 3208.27 1200.48 3186.62 923.43 2909.57C797.951 2784.09 752.634 2612.42 746.849 2422.16C741.267 2238.59 772.525 2040.4 801.937 1853.91C803.037 1846.94 804.134 1839.98 805.227 1833.04C807.143 1820.87 809.032 1808.84 810.901 1796.93C876.687 1377.92 917.469 1118.17 1202.49 833.145Z" stroke="#FF003D" stroke-opacity="0.5" stroke-width="35"/>
<path d="M3409.67 1897.69C3455.91 2070.29 3412.36 2223.13 3329.49 2363.27C3255.85 2487.79 3152.08 2600.85 3053.87 2707.86C3041.02 2721.86 3028.27 2735.75 3015.7 2749.55C2966.42 2803.63 2921.28 2857.5 2877.36 2909.91C2704.52 3116.17 2550.77 3299.65 2239.34 3383.12C1884.75 3478.15 1666.22 3317.11 1418.1 3134.25C1394.53 3116.88 1370.69 3099.32 1346.44 3081.75C1302.61 3050 1256.75 3019.22 1210.81 2988.39C1191.36 2975.33 1171.89 2962.27 1152.56 2949.11C1087.28 2904.7 1023 2858.96 963.62 2807.92C845.069 2706.03 746.475 2583.44 699.933 2409.71C651.429 2228.66 684.273 2042.57 754.388 1858.27C818.917 1688.66 914.29 1522.3 1004.87 1364.31C1012.8 1350.47 1020.7 1336.7 1028.54 1322.99C1227.68 974.664 1393.16 730.874 1767.76 630.481C1937.4 585.02 2106.96 631.131 2272.93 720.356C2433.06 806.446 2587.5 931.363 2732.83 1048.92C2738.27 1053.31 2743.69 1057.7 2749.1 1062.07C2758.58 1069.73 2767.96 1077.31 2777.23 1084.8C3103.93 1348.67 3306.4 1512.21 3409.67 1897.69Z" stroke="#FF003D" stroke-width="35"/>
</svg>
